<svg id="visual" viewBox="0 0 900 600" width="900" height="600" xmlns="http://www.w3.org/2000/svg" xmlns:xlink="http://www.w3.org/1999/xlink" version="1.1"><rect width="900" height="600" fill="#15271b"></rect><g><g transform="translate(647 585)"><path d="M0 -109.1L94.5 -54.6L94.5 54.6L0 109.1L-94.5 54.6L-94.5 -54.6Z" stroke="#5aff73" fill="none" stroke-width="2"></path></g><g transform="translate(436 127)"><path d="M0 -89L77.1 -44.5L77.1 44.5L0 89L-77.1 44.5L-77.1 -44.5Z" stroke="#5aff73" fill="none" stroke-width="2"></path></g><g transform="translate(598 326)"><path d="M0 -64L55.4 -32L55.4 32L0 64L-55.4 32L-55.4 -32Z" stroke="#5aff73" fill="none" stroke-width="2"></path></g><g transform="translate(168 598)"><path d="M0 -61L52.8 -30.5L52.8 30.5L0 61L-52.8 30.5L-52.8 -30.5Z" stroke="#5aff73" fill="none" stroke-width="2"></path></g><g transform="translate(825 295)"><path d="M0 -99L85.7 -49.5L85.7 49.5L0 99L-85.7 49.5L-85.7 -49.5Z" stroke="#5aff73" fill="none" stroke-width="2"></path></g><g transform="translate(158 324)"><path d="M0 -85L73.6 -42.5L73.6 42.5L0 85L-73.6 42.5L-73.6 -42.5Z" stroke="#5aff73" fill="none" stroke-width="2"></path></g><g transform="translate(727 11)"><path d="M0 -53L45.9 -26.5L45.9 26.5L0 53L-45.9 26.5L-45.9 -26.5Z" stroke="#5aff73" fill="none" stroke-width="2"></path></g><g transform="translate(876 511)"><path d="M0 -42L36.4 -21L36.4 21L0 42L-36.4 21L-36.4 -21Z" stroke="#5aff73" fill="none" stroke-width="2"></path></g><g transform="translate(11 41)"><path d="M0 -62L53.7 -31L53.7 31L0 62L-53.7 31L-53.7 -31Z" stroke="#5aff73" fill="none" stroke-width="2"></path></g><g transform="translate(373 426)"><path d="M0 -93L80.5 -46.5L80.5 46.5L0 93L-80.5 46.5L-80.5 -46.5Z" stroke="#5aff73" fill="none" stroke-width="2"></path></g><g transform="translate(242 11)"><path d="M0 -74L64.1 -37L64.1 37L0 74L-64.1 37L-64.1 -37Z" stroke="#5aff73" fill="none" stroke-width="2"></path></g></g></svg>