<svg id="visual" viewBox="0 0 900 250" width="900" height="250" xmlns="http://www.w3.org/2000/svg" xmlns:xlink="http://www.w3.org/1999/xlink" version="1.1"><path d="M0 24L113 26L225 39L338 39L450 26L563 39L675 34L788 31L900 31L900 0L788 0L675 0L563 0L450 0L338 0L225 0L113 0L0 0Z" fill="#4fd45d"></path><path d="M0 69L113 69L225 76L338 64L450 66L563 79L675 74L788 71L900 76L900 29L788 29L675 32L563 37L450 24L338 37L225 37L113 24L0 22Z" fill="#31c065"></path><path d="M0 89L113 94L225 99L338 91L450 89L563 109L675 101L788 91L900 96L900 74L788 69L675 72L563 77L450 64L338 62L225 74L113 67L0 67Z" fill="#15ac68"></path><path d="M0 106L113 121L225 119L338 111L450 109L563 126L675 126L788 109L900 119L900 94L788 89L675 99L563 107L450 87L338 89L225 97L113 92L0 87Z" fill="#009768"></path><path d="M0 159L113 186L225 191L338 169L450 164L563 174L675 179L788 171L900 179L900 117L788 107L675 124L563 124L450 107L338 109L225 117L113 119L0 104Z" fill="#008264"></path><path d="M0 236L113 239L225 239L338 234L450 234L563 234L675 236L788 236L900 239L900 177L788 169L675 177L563 172L450 162L338 167L225 189L113 184L0 157Z" fill="#016e5d"></path><path d="M0 251L113 251L225 251L338 251L450 251L563 251L675 251L788 251L900 251L900 237L788 234L675 234L563 232L450 232L338 232L225 237L113 237L0 234Z" fill="#155a52"></path></svg>