<svg id="visual" viewBox="0 0 900 250" width="900" height="250" xmlns="http://www.w3.org/2000/svg" xmlns:xlink="http://www.w3.org/1999/xlink" version="1.1"><rect x="0" y="0" width="900" height="250" fill="#1d462f"></rect><path d="M0 165L15 154.7C30 144.3 60 123.7 90 110.8C120 98 150 93 180 102.5C210 112 240 136 270 152.2C300 168.3 330 176.7 360 176C390 175.3 420 165.7 450 148.2C480 130.7 510 105.3 540 91C570 76.7 600 73.3 630 92.5C660 111.7 690 153.3 720 166.7C750 180 780 165 810 169C840 173 870 196 885 207.5L900 219L900 0L885 0C870 0 840 0 810 0C780 0 750 0 720 0C690 0 660 0 630 0C600 0 570 0 540 0C510 0 480 0 450 0C420 0 390 0 360 0C330 0 300 0 270 0C240 0 210 0 180 0C150 0 120 0 90 0C60 0 30 0 15 0L0 0Z" fill="#1d462f"></path><path d="M0 227L15 208.5C30 190 60 153 90 133.2C120 113.3 150 110.7 180 113.8C210 117 240 126 270 125.8C300 125.7 330 116.3 360 110.2C390 104 420 101 450 106.3C480 111.7 510 125.3 540 140.2C570 155 600 171 630 172.5C660 174 690 161 720 154.7C750 148.3 780 148.7 810 145.5C840 142.3 870 135.7 885 132.3L900 129L900 0L885 0C870 0 840 0 810 0C780 0 750 0 720 0C690 0 660 0 630 0C600 0 570 0 540 0C510 0 480 0 450 0C420 0 390 0 360 0C330 0 300 0 270 0C240 0 210 0 180 0C150 0 120 0 90 0C60 0 30 0 15 0L0 0Z" fill="#1c4832"></path><path d="M0 108L15 99.2C30 90.3 60 72.7 90 86.3C120 100 150 145 180 160.5C210 176 240 162 270 149.8C300 137.7 330 127.3 360 113.8C390 100.3 420 83.7 450 91.2C480 98.7 510 130.3 540 126.2C570 122 600 82 630 89.7C660 97.3 690 152.7 720 156C750 159.3 780 110.7 810 104.3C840 98 870 134 885 152L900 170L900 0L885 0C870 0 840 0 810 0C780 0 750 0 720 0C690 0 660 0 630 0C600 0 570 0 540 0C510 0 480 0 450 0C420 0 390 0 360 0C330 0 300 0 270 0C240 0 210 0 180 0C150 0 120 0 90 0C60 0 30 0 15 0L0 0Z" fill="#1c4a35"></path><path d="M0 137L15 142.8C30 148.7 60 160.3 90 144.3C120 128.3 150 84.7 180 85.7C210 86.7 240 132.3 270 131C300 129.7 330 81.3 360 58.8C390 36.3 420 39.7 450 48.5C480 57.3 510 71.7 540 86.5C570 101.3 600 116.7 630 125.5C660 134.3 690 136.7 720 123C750 109.3 780 79.7 810 66.5C840 53.3 870 56.7 885 58.3L900 60L900 0L885 0C870 0 840 0 810 0C780 0 750 0 720 0C690 0 660 0 630 0C600 0 570 0 540 0C510 0 480 0 450 0C420 0 390 0 360 0C330 0 300 0 270 0C240 0 210 0 180 0C150 0 120 0 90 0C60 0 30 0 15 0L0 0Z" fill="#1b4b38"></path><path d="M0 128L15 133.2C30 138.3 60 148.7 90 133.5C120 118.3 150 77.7 180 77C210 76.3 240 115.7 270 123.7C300 131.7 330 108.3 360 111C390 113.7 420 142.3 450 135.8C480 129.3 510 87.7 540 83.2C570 78.7 600 111.3 630 114.2C660 117 690 90 720 77.3C750 64.7 780 66.3 810 71C840 75.7 870 83.3 885 87.2L900 91L900 0L885 0C870 0 840 0 810 0C780 0 750 0 720 0C690 0 660 0 630 0C600 0 570 0 540 0C510 0 480 0 450 0C420 0 390 0 360 0C330 0 300 0 270 0C240 0 210 0 180 0C150 0 120 0 90 0C60 0 30 0 15 0L0 0Z" fill="#1a4d3b"></path><path d="M0 75L15 72.8C30 70.7 60 66.3 90 57.7C120 49 150 36 180 38.5C210 41 240 59 270 71.3C300 83.7 330 90.3 360 81.2C390 72 420 47 450 43C480 39 510 56 540 77.2C570 98.3 600 123.7 630 119.3C660 115 690 81 720 78.7C750 76.3 780 105.7 810 104.2C840 102.7 870 70.3 885 54.2L900 38L900 0L885 0C870 0 840 0 810 0C780 0 750 0 720 0C690 0 660 0 630 0C600 0 570 0 540 0C510 0 480 0 450 0C420 0 390 0 360 0C330 0 300 0 270 0C240 0 210 0 180 0C150 0 120 0 90 0C60 0 30 0 15 0L0 0Z" fill="#194f3e"></path><path d="M0 82L15 89.2C30 96.3 60 110.7 90 117.7C120 124.7 150 124.3 180 123.2C210 122 240 120 270 107.2C300 94.3 330 70.7 360 61C390 51.3 420 55.7 450 69.5C480 83.3 510 106.7 540 109.5C570 112.3 600 94.7 630 90C660 85.3 690 93.7 720 95.2C750 96.7 780 91.3 810 78.8C840 66.3 870 46.7 885 36.8L900 27L900 0L885 0C870 0 840 0 810 0C780 0 750 0 720 0C690 0 660 0 630 0C600 0 570 0 540 0C510 0 480 0 450 0C420 0 390 0 360 0C330 0 300 0 270 0C240 0 210 0 180 0C150 0 120 0 90 0C60 0 30 0 15 0L0 0Z" fill="#195142"></path><path d="M0 87L15 83.8C30 80.7 60 74.3 90 70.3C120 66.3 150 64.7 180 66.2C210 67.7 240 72.3 270 65.3C300 58.3 330 39.7 360 36C390 32.3 420 43.7 450 58.7C480 73.7 510 92.3 540 91.5C570 90.7 600 70.3 630 54.8C660 39.3 690 28.7 720 30.3C750 32 780 46 810 59.8C840 73.7 870 87.3 885 94.2L900 101L900 0L885 0C870 0 840 0 810 0C780 0 750 0 720 0C690 0 660 0 630 0C600 0 570 0 540 0C510 0 480 0 450 0C420 0 390 0 360 0C330 0 300 0 270 0C240 0 210 0 180 0C150 0 120 0 90 0C60 0 30 0 15 0L0 0Z" fill="#185345"></path><path d="M0 52L15 55.5C30 59 60 66 90 62.7C120 59.3 150 45.7 180 48.3C210 51 240 70 270 68.3C300 66.7 330 44.3 360 31.3C390 18.3 420 14.7 450 22.7C480 30.7 510 50.3 540 50.5C570 50.7 600 31.3 630 27.2C660 23 690 34 720 37.7C750 41.3 780 37.7 810 39.5C840 41.3 870 48.7 885 52.3L900 56L900 0L885 0C870 0 840 0 810 0C780 0 750 0 720 0C690 0 660 0 630 0C600 0 570 0 540 0C510 0 480 0 450 0C420 0 390 0 360 0C330 0 300 0 270 0C240 0 210 0 180 0C150 0 120 0 90 0C60 0 30 0 15 0L0 0Z" fill="#175548"></path><path d="M0 61L15 52.7C30 44.3 60 27.7 90 27.3C120 27 150 43 180 44.2C210 45.3 240 31.7 270 27.7C300 23.7 330 29.3 360 38.7C390 48 420 61 450 62.5C480 64 510 54 540 53.8C570 53.7 600 63.3 630 64.8C660 66.3 690 59.7 720 56C750 52.3 780 51.7 810 47.7C840 43.7 870 36.3 885 32.7L900 29L900 0L885 0C870 0 840 0 810 0C780 0 750 0 720 0C690 0 660 0 630 0C600 0 570 0 540 0C510 0 480 0 450 0C420 0 390 0 360 0C330 0 300 0 270 0C240 0 210 0 180 0C150 0 120 0 90 0C60 0 30 0 15 0L0 0Z" fill="#16564b"></path><path d="M0 34L15 36.8C30 39.7 60 45.3 90 40.7C120 36 150 21 180 21.5C210 22 240 38 270 38C300 38 330 22 360 22C390 22 420 38 450 41.7C480 45.3 510 36.7 540 31.2C570 25.7 600 23.3 630 25.7C660 28 690 35 720 36.3C750 37.7 780 33.3 810 28.5C840 23.7 870 18.3 885 15.7L900 13L900 0L885 0C870 0 840 0 810 0C780 0 750 0 720 0C690 0 660 0 630 0C600 0 570 0 540 0C510 0 480 0 450 0C420 0 390 0 360 0C330 0 300 0 270 0C240 0 210 0 180 0C150 0 120 0 90 0C60 0 30 0 15 0L0 0Z" fill="#16584f"></path><path d="M0 11L15 15.2C30 19.3 60 27.7 90 31.2C120 34.7 150 33.3 180 27.7C210 22 240 12 270 7.3C300 2.7 330 3.3 360 7.8C390 12.3 420 20.7 450 21.3C480 22 510 15 540 10.8C570 6.7 600 5.3 630 6.5C660 7.7 690 11.3 720 12C750 12.7 780 10.3 810 10.3C840 10.3 870 12.7 885 13.8L900 15L900 0L885 0C870 0 840 0 810 0C780 0 750 0 720 0C690 0 660 0 630 0C600 0 570 0 540 0C510 0 480 0 450 0C420 0 390 0 360 0C330 0 300 0 270 0C240 0 210 0 180 0C150 0 120 0 90 0C60 0 30 0 15 0L0 0Z" fill="#155a52"></path></svg>