<svg id="visual" viewBox="0 0 900 250" width="900" height="250" xmlns="http://www.w3.org/2000/svg" xmlns:xlink="http://www.w3.org/1999/xlink" version="1.1"><rect x="0" y="0" width="900" height="250" fill="#15271B"></rect><path d="M0 45L15 43.7C30 42.3 60 39.7 90 55.2C120 70.7 150 104.3 180 104.5C210 104.7 240 71.3 270 73.2C300 75 330 112 360 114C390 116 420 83 450 64.2C480 45.3 510 40.7 540 54.8C570 69 600 102 630 102.2C660 102.3 690 69.7 720 73.5C750 77.3 780 117.7 810 122.3C840 127 870 96 885 80.5L900 65L900 251L885 251C870 251 840 251 810 251C780 251 750 251 720 251C690 251 660 251 630 251C600 251 570 251 540 251C510 251 480 251 450 251C420 251 390 251 360 251C330 251 300 251 270 251C240 251 210 251 180 251C150 251 120 251 90 251C60 251 30 251 15 251L0 251Z" fill="#223d2d"></path><path d="M0 62L15 74.7C30 87.3 60 112.7 90 130.2C120 147.7 150 157.3 180 147.5C210 137.7 240 108.3 270 96C300 83.7 330 88.3 360 93C390 97.7 420 102.3 450 118.3C480 134.3 510 161.7 540 170.8C570 180 600 171 630 167.3C660 163.7 690 165.3 720 168.8C750 172.3 780 177.7 810 160.5C840 143.3 870 103.7 885 83.8L900 64L900 251L885 251C870 251 840 251 810 251C780 251 750 251 720 251C690 251 660 251 630 251C600 251 570 251 540 251C510 251 480 251 450 251C420 251 390 251 360 251C330 251 300 251 270 251C240 251 210 251 180 251C150 251 120 251 90 251C60 251 30 251 15 251L0 251Z" fill="#264632"></path><path d="M0 121L15 122.8C30 124.7 60 128.3 90 123.7C120 119 150 106 180 96.8C210 87.7 240 82.3 270 91.7C300 101 330 125 360 127C390 129 420 109 450 99.2C480 89.3 510 89.7 540 92.3C570 95 600 100 630 107.3C660 114.7 690 124.3 720 134.7C750 145 780 156 810 149.2C840 142.3 870 117.7 885 105.3L900 93L900 251L885 251C870 251 840 251 810 251C780 251 750 251 720 251C690 251 660 251 630 251C600 251 570 251 540 251C510 251 480 251 450 251C420 251 390 251 360 251C330 251 300 251 270 251C240 251 210 251 180 251C150 251 120 251 90 251C60 251 30 251 15 251L0 251Z" fill="#2b4f37"></path><path d="M0 97L15 99C30 101 60 105 90 108.2C120 111.3 150 113.7 180 122.5C210 131.3 240 146.7 270 151.7C300 156.7 330 151.3 360 149.3C390 147.3 420 148.7 450 151.2C480 153.7 510 157.3 540 160.2C570 163 600 165 630 154C660 143 690 119 720 111.8C750 104.7 780 114.3 810 131.7C840 149 870 174 885 186.5L900 199L900 251L885 251C870 251 840 251 810 251C780 251 750 251 720 251C690 251 660 251 630 251C600 251 570 251 540 251C510 251 480 251 450 251C420 251 390 251 360 251C330 251 300 251 270 251C240 251 210 251 180 251C150 251 120 251 90 251C60 251 30 251 15 251L0 251Z" fill="#30593c"></path><path d="M0 150L15 145C30 140 60 130 90 121.5C120 113 150 106 180 103.5C210 101 240 103 270 109C300 115 330 125 360 138.3C390 151.7 420 168.3 450 163.7C480 159 510 133 540 134.5C570 136 600 165 630 178.3C660 191.7 690 189.3 720 179.8C750 170.3 780 153.7 810 156.3C840 159 870 181 885 192L900 203L900 251L885 251C870 251 840 251 810 251C780 251 750 251 720 251C690 251 660 251 630 251C600 251 570 251 540 251C510 251 480 251 450 251C420 251 390 251 360 251C330 251 300 251 270 251C240 251 210 251 180 251C150 251 120 251 90 251C60 251 30 251 15 251L0 251Z" fill="#356240"></path><path d="M0 160L15 157.8C30 155.7 60 151.3 90 155.7C120 160 150 173 180 169.3C210 165.7 240 145.3 270 143.3C300 141.3 330 157.7 360 167.3C390 177 420 180 450 181.2C480 182.3 510 181.7 540 177.5C570 173.3 600 165.7 630 157.2C660 148.7 690 139.3 720 139.8C750 140.3 780 150.7 810 159.3C840 168 870 175 885 178.5L900 182L900 251L885 251C870 251 840 251 810 251C780 251 750 251 720 251C690 251 660 251 630 251C600 251 570 251 540 251C510 251 480 251 450 251C420 251 390 251 360 251C330 251 300 251 270 251C240 251 210 251 180 251C150 251 120 251 90 251C60 251 30 251 15 251L0 251Z" fill="#3b6c45"></path><path d="M0 154L15 155.8C30 157.7 60 161.3 90 170.8C120 180.3 150 195.7 180 194C210 192.3 240 173.7 270 160.8C300 148 330 141 360 150.3C390 159.7 420 185.3 450 184.2C480 183 510 155 540 149.8C570 144.7 600 162.3 630 165.7C660 169 690 158 720 164C750 170 780 193 810 203C840 213 870 210 885 208.5L900 207L900 251L885 251C870 251 840 251 810 251C780 251 750 251 720 251C690 251 660 251 630 251C600 251 570 251 540 251C510 251 480 251 450 251C420 251 390 251 360 251C330 251 300 251 270 251C240 251 210 251 180 251C150 251 120 251 90 251C60 251 30 251 15 251L0 251Z" fill="#417649"></path><path d="M0 152L15 156.2C30 160.3 60 168.7 90 177.3C120 186 150 195 180 192.5C210 190 240 176 270 178.5C300 181 330 200 360 209.8C390 219.7 420 220.3 450 212.3C480 204.3 510 187.7 540 182.2C570 176.7 600 182.3 630 189.7C660 197 690 206 720 199.5C750 193 780 171 810 165.5C840 160 870 171 885 176.5L900 182L900 251L885 251C870 251 840 251 810 251C780 251 750 251 720 251C690 251 660 251 630 251C600 251 570 251 540 251C510 251 480 251 450 251C420 251 390 251 360 251C330 251 300 251 270 251C240 251 210 251 180 251C150 251 120 251 90 251C60 251 30 251 15 251L0 251Z" fill="#48804d"></path><path d="M0 225L15 224.2C30 223.3 60 221.7 90 213.2C120 204.7 150 189.3 180 180.5C210 171.7 240 169.3 270 174.7C300 180 330 193 360 199.2C390 205.3 420 204.7 450 198.7C480 192.7 510 181.3 540 183.7C570 186 600 202 630 202.7C660 203.3 690 188.7 720 185.7C750 182.7 780 191.3 810 198.2C840 205 870 210 885 212.5L900 215L900 251L885 251C870 251 840 251 810 251C780 251 750 251 720 251C690 251 660 251 630 251C600 251 570 251 540 251C510 251 480 251 450 251C420 251 390 251 360 251C330 251 300 251 270 251C240 251 210 251 180 251C150 251 120 251 90 251C60 251 30 251 15 251L0 251Z" fill="#508a51"></path><path d="M0 205L15 209.7C30 214.3 60 223.7 90 228C120 232.3 150 231.7 180 223.5C210 215.3 240 199.7 270 199.2C300 198.7 330 213.3 360 213.3C390 213.3 420 198.7 450 199.2C480 199.7 510 215.3 540 215.3C570 215.3 600 199.7 630 191.8C660 184 690 184 720 191C750 198 780 212 810 211.3C840 210.7 870 195.3 885 187.7L900 180L900 251L885 251C870 251 840 251 810 251C780 251 750 251 720 251C690 251 660 251 630 251C600 251 570 251 540 251C510 251 480 251 450 251C420 251 390 251 360 251C330 251 300 251 270 251C240 251 210 251 180 251C150 251 120 251 90 251C60 251 30 251 15 251L0 251Z" fill="#589454"></path><path d="M0 230L15 227.8C30 225.7 60 221.3 90 222.8C120 224.3 150 231.7 180 233.3C210 235 240 231 270 229.2C300 227.3 330 227.7 360 223C390 218.3 420 208.7 450 208.3C480 208 510 217 540 223.2C570 229.3 600 232.7 630 231.2C660 229.7 690 223.3 720 221.7C750 220 780 223 810 225.3C840 227.7 870 229.3 885 230.2L900 231L900 251L885 251C870 251 840 251 810 251C780 251 750 251 720 251C690 251 660 251 630 251C600 251 570 251 540 251C510 251 480 251 450 251C420 251 390 251 360 251C330 251 300 251 270 251C240 251 210 251 180 251C150 251 120 251 90 251C60 251 30 251 15 251L0 251Z" fill="#609f58"></path><path d="M0 244L15 243.2C30 242.3 60 240.7 90 239.8C120 239 150 239 180 238C210 237 240 235 270 231.7C300 228.3 330 223.7 360 223.8C390 224 420 229 450 229.3C480 229.7 510 225.3 540 223.2C570 221 600 221 630 221.2C660 221.3 690 221.7 720 221.8C750 222 780 222 810 222.3C840 222.7 870 223.3 885 223.7L900 224L900 251L885 251C870 251 840 251 810 251C780 251 750 251 720 251C690 251 660 251 630 251C600 251 570 251 540 251C510 251 480 251 450 251C420 251 390 251 360 251C330 251 300 251 270 251C240 251 210 251 180 251C150 251 120 251 90 251C60 251 30 251 15 251L0 251Z" fill="#69a95b"></path></svg>