<svg id="visual" viewBox="0 0 900 250" width="900" height="250" xmlns="http://www.w3.org/2000/svg" xmlns:xlink="http://www.w3.org/1999/xlink" version="1.1"><rect x="0" y="0" width="900" height="250" fill="#15271B"></rect><path d="M0 243L15 209.7C30 176.3 60 109.7 90 89.5C120 69.3 150 95.7 180 105.7C210 115.7 240 109.3 270 110C300 110.7 330 118.3 360 138.2C390 158 420 190 450 206.5C480 223 510 224 540 219.8C570 215.7 600 206.3 630 200.2C660 194 690 191 720 192.7C750 194.3 780 200.7 810 208.8C840 217 870 227 885 232L900 237L900 0L885 0C870 0 840 0 810 0C780 0 750 0 720 0C690 0 660 0 630 0C600 0 570 0 540 0C510 0 480 0 450 0C420 0 390 0 360 0C330 0 300 0 270 0C240 0 210 0 180 0C150 0 120 0 90 0C60 0 30 0 15 0L0 0Z" fill="#223d2d"></path><path d="M0 200L15 180.5C30 161 60 122 90 99C120 76 150 69 180 85.5C210 102 240 142 270 164.8C300 187.7 330 193.3 360 187C390 180.7 420 162.3 450 167C480 171.7 510 199.3 540 206.3C570 213.3 600 199.7 630 194.5C660 189.3 690 192.7 720 193.3C750 194 780 192 810 184.8C840 177.7 870 165.3 885 159.2L900 153L900 0L885 0C870 0 840 0 810 0C780 0 750 0 720 0C690 0 660 0 630 0C600 0 570 0 540 0C510 0 480 0 450 0C420 0 390 0 360 0C330 0 300 0 270 0C240 0 210 0 180 0C150 0 120 0 90 0C60 0 30 0 15 0L0 0Z" fill="#224030"></path><path d="M0 140L15 132.5C30 125 60 110 90 111.2C120 112.3 150 129.7 180 133.7C210 137.7 240 128.3 270 125.2C300 122 330 125 360 131.2C390 137.3 420 146.7 450 143.8C480 141 510 126 540 107.5C570 89 600 67 630 65.8C660 64.7 690 84.3 720 102.7C750 121 780 138 810 131C840 124 870 93 885 77.5L900 62L900 0L885 0C870 0 840 0 810 0C780 0 750 0 720 0C690 0 660 0 630 0C600 0 570 0 540 0C510 0 480 0 450 0C420 0 390 0 360 0C330 0 300 0 270 0C240 0 210 0 180 0C150 0 120 0 90 0C60 0 30 0 15 0L0 0Z" fill="#214233"></path><path d="M0 88L15 104.2C30 120.3 60 152.7 90 149C120 145.3 150 105.7 180 89.2C210 72.7 240 79.3 270 94.5C300 109.7 330 133.3 360 136.7C390 140 420 123 450 126C480 129 510 152 540 154.3C570 156.7 600 138.3 630 122.3C660 106.3 690 92.7 720 78.7C750 64.7 780 50.3 810 50.7C840 51 870 66 885 73.5L900 81L900 0L885 0C870 0 840 0 810 0C780 0 750 0 720 0C690 0 660 0 630 0C600 0 570 0 540 0C510 0 480 0 450 0C420 0 390 0 360 0C330 0 300 0 270 0C240 0 210 0 180 0C150 0 120 0 90 0C60 0 30 0 15 0L0 0Z" fill="#214536"></path><path d="M0 140L15 139.3C30 138.7 60 137.3 90 135.8C120 134.3 150 132.7 180 121.7C210 110.7 240 90.3 270 91.2C300 92 330 114 360 115.8C390 117.7 420 99.3 450 95.3C480 91.3 510 101.7 540 101.7C570 101.7 600 91.3 630 82C660 72.7 690 64.3 720 71.2C750 78 780 100 810 104.7C840 109.3 870 96.7 885 90.3L900 84L900 0L885 0C870 0 840 0 810 0C780 0 750 0 720 0C690 0 660 0 630 0C600 0 570 0 540 0C510 0 480 0 450 0C420 0 390 0 360 0C330 0 300 0 270 0C240 0 210 0 180 0C150 0 120 0 90 0C60 0 30 0 15 0L0 0Z" fill="#204739"></path><path d="M0 84L15 82.5C30 81 60 78 90 80C120 82 150 89 180 89.3C210 89.7 240 83.3 270 91.5C300 99.7 330 122.3 360 134.2C390 146 420 147 450 129.2C480 111.3 510 74.7 540 71C570 67.3 600 96.7 630 95.8C660 95 690 64 720 65.5C750 67 780 101 810 114.5C840 128 870 121 885 117.5L900 114L900 0L885 0C870 0 840 0 810 0C780 0 750 0 720 0C690 0 660 0 630 0C600 0 570 0 540 0C510 0 480 0 450 0C420 0 390 0 360 0C330 0 300 0 270 0C240 0 210 0 180 0C150 0 120 0 90 0C60 0 30 0 15 0L0 0Z" fill="#1f4a3c"></path><path d="M0 80L15 84.7C30 89.3 60 98.7 90 98C120 97.3 150 86.7 180 84.5C210 82.3 240 88.7 270 80.5C300 72.3 330 49.7 360 40C390 30.3 420 33.7 450 46.7C480 59.7 510 82.3 540 83.3C570 84.3 600 63.7 630 50.7C660 37.7 690 32.3 720 42.8C750 53.3 780 79.7 810 93C840 106.3 870 106.7 885 106.8L900 107L900 0L885 0C870 0 840 0 810 0C780 0 750 0 720 0C690 0 660 0 630 0C600 0 570 0 540 0C510 0 480 0 450 0C420 0 390 0 360 0C330 0 300 0 270 0C240 0 210 0 180 0C150 0 120 0 90 0C60 0 30 0 15 0L0 0Z" fill="#1e4c40"></path><path d="M0 70L15 76.3C30 82.7 60 95.3 90 95.2C120 95 150 82 180 74.5C210 67 240 65 270 59.2C300 53.3 330 43.7 360 38.5C390 33.3 420 32.7 450 40.8C480 49 510 66 540 71C570 76 600 69 630 60.8C660 52.7 690 43.3 720 50C750 56.7 780 79.3 810 91.8C840 104.3 870 106.7 885 107.8L900 109L900 0L885 0C870 0 840 0 810 0C780 0 750 0 720 0C690 0 660 0 630 0C600 0 570 0 540 0C510 0 480 0 450 0C420 0 390 0 360 0C330 0 300 0 270 0C240 0 210 0 180 0C150 0 120 0 90 0C60 0 30 0 15 0L0 0Z" fill="#1d4f43"></path><path d="M0 79L15 80.3C30 81.7 60 84.3 90 85.7C120 87 150 87 180 80.8C210 74.7 240 62.3 270 57.3C300 52.3 330 54.7 360 59.3C390 64 420 71 450 69C480 67 510 56 540 58C570 60 600 75 630 80.7C660 86.3 690 82.7 720 79C750 75.3 780 71.7 810 71C840 70.3 870 72.7 885 73.8L900 75L900 0L885 0C870 0 840 0 810 0C780 0 750 0 720 0C690 0 660 0 630 0C600 0 570 0 540 0C510 0 480 0 450 0C420 0 390 0 360 0C330 0 300 0 270 0C240 0 210 0 180 0C150 0 120 0 90 0C60 0 30 0 15 0L0 0Z" fill="#1c5247"></path><path d="M0 47L15 45.2C30 43.3 60 39.7 90 38.5C120 37.3 150 38.7 180 39.5C210 40.3 240 40.7 270 35.3C300 30 330 19 360 22.2C390 25.3 420 42.7 450 49.2C480 55.7 510 51.3 540 50.7C570 50 600 53 630 55.8C660 58.7 690 61.3 720 53.8C750 46.3 780 28.7 810 27C840 25.3 870 39.7 885 46.8L900 54L900 0L885 0C870 0 840 0 810 0C780 0 750 0 720 0C690 0 660 0 630 0C600 0 570 0 540 0C510 0 480 0 450 0C420 0 390 0 360 0C330 0 300 0 270 0C240 0 210 0 180 0C150 0 120 0 90 0C60 0 30 0 15 0L0 0Z" fill="#1a554a"></path><path d="M0 37L15 34C30 31 60 25 90 26.3C120 27.7 150 36.3 180 38.2C210 40 240 35 270 28C300 21 330 12 360 13C390 14 420 25 450 31C480 37 510 38 540 33.2C570 28.3 600 17.7 630 17.7C660 17.7 690 28.3 720 28.8C750 29.3 780 19.7 810 20.7C840 21.7 870 33.3 885 39.2L900 45L900 0L885 0C870 0 840 0 810 0C780 0 750 0 720 0C690 0 660 0 630 0C600 0 570 0 540 0C510 0 480 0 450 0C420 0 390 0 360 0C330 0 300 0 270 0C240 0 210 0 180 0C150 0 120 0 90 0C60 0 30 0 15 0L0 0Z" fill="#18574e"></path><path d="M0 32L15 31.3C30 30.7 60 29.3 90 29.5C120 29.7 150 31.3 180 29C210 26.7 240 20.3 270 16C300 11.7 330 9.3 360 9.7C390 10 420 13 450 17.2C480 21.3 510 26.7 540 28C570 29.3 600 26.7 630 23.2C660 19.7 690 15.3 720 14.5C750 13.7 780 16.3 810 20C840 23.7 870 28.3 885 30.7L900 33L900 0L885 0C870 0 840 0 810 0C780 0 750 0 720 0C690 0 660 0 630 0C600 0 570 0 540 0C510 0 480 0 450 0C420 0 390 0 360 0C330 0 300 0 270 0C240 0 210 0 180 0C150 0 120 0 90 0C60 0 30 0 15 0L0 0Z" fill="#155a52"></path></svg>