<svg id="visual" viewBox="0 0 900 50" width="900" height="50" xmlns="http://www.w3.org/2000/svg" xmlns:xlink="http://www.w3.org/1999/xlink" version="1.1"><rect x="0" y="0" width="900" height="50" fill="#69A95B"></rect><path d="M0 10L7.8 9.8C15.7 9.7 31.3 9.3 47.2 12.2C63 15 79 21 94.8 25C110.7 29 126.3 31 142 30.8C157.7 30.7 173.3 28.3 189.2 25.3C205 22.3 221 18.7 236.8 19.3C252.7 20 268.3 25 284.2 25C300 25 316 20 331.8 20.5C347.7 21 363.3 27 379 29C394.7 31 410.3 29 426.2 29C442 29 458 31 473.8 28.7C489.7 26.3 505.3 19.7 521 16C536.7 12.3 552.3 11.7 568.2 15.2C584 18.7 600 26.3 615.8 26.5C631.7 26.7 647.3 19.3 663.2 17.2C679 15 695 18 710.8 18.8C726.7 19.7 742.3 18.3 758 21.3C773.7 24.3 789.3 31.7 805.2 34.5C821 37.3 837 35.7 852.8 33.8C868.7 32 884.3 30 892.2 29L900 28L900 51L892.2 51C884.3 51 868.7 51 852.8 51C837 51 821 51 805.2 51C789.3 51 773.7 51 758 51C742.3 51 726.7 51 710.8 51C695 51 679 51 663.2 51C647.3 51 631.7 51 615.8 51C600 51 584 51 568.2 51C552.3 51 536.7 51 521 51C505.3 51 489.7 51 473.8 51C458 51 442 51 426.2 51C410.3 51 394.7 51 379 51C363.3 51 347.7 51 331.8 51C316 51 300 51 284.2 51C268.3 51 252.7 51 236.8 51C221 51 205 51 189.2 51C173.3 51 157.7 51 142 51C126.3 51 110.7 51 94.8 51C79 51 63 51 47.2 51C31.3 51 15.7 51 7.8 51L0 51Z" fill="#99F159" stroke-linecap="round" stroke-linejoin="miter"></path></svg>