<svg id="visual" viewBox="0 0 900 100" width="900" height="100" xmlns="http://www.w3.org/2000/svg" xmlns:xlink="http://www.w3.org/1999/xlink" version="1.1"><rect x="0" y="0" width="900" height="100" fill="#c5fa9f"></rect><path d="M0 54L7.8 54.2C15.7 54.3 31.3 54.7 47.2 50.5C63 46.3 79 37.7 94.8 32C110.7 26.3 126.3 23.7 142 24.2C157.7 24.7 173.3 28.3 189.2 32.7C205 37 221 42 236.8 40.8C252.7 39.7 268.3 32.3 284.2 32.3C300 32.3 316 39.7 331.8 39C347.7 38.3 363.3 29.7 379 26.7C394.7 23.7 410.3 26.3 426.2 26.3C442 26.3 458 23.7 473.8 27.2C489.7 30.7 505.3 40.3 521 45.5C536.7 50.7 552.3 51.3 568.2 46.3C584 41.3 600 30.7 615.8 30.5C631.7 30.3 647.3 40.7 663.2 43.7C679 46.7 695 42.3 710.8 41.2C726.7 40 742.3 42 758 37.8C773.7 33.7 789.3 23.3 805.2 19.3C821 15.3 837 17.7 852.8 20.2C868.7 22.7 884.3 25.3 892.2 26.7L900 28L900 0L892.2 0C884.3 0 868.7 0 852.8 0C837 0 821 0 805.2 0C789.3 0 773.7 0 758 0C742.3 0 726.7 0 710.8 0C695 0 679 0 663.2 0C647.3 0 631.7 0 615.8 0C600 0 584 0 568.2 0C552.3 0 536.7 0 521 0C505.3 0 489.7 0 473.8 0C458 0 442 0 426.2 0C410.3 0 394.7 0 379 0C363.3 0 347.7 0 331.8 0C316 0 300 0 284.2 0C268.3 0 252.7 0 236.8 0C221 0 205 0 189.2 0C173.3 0 157.7 0 142 0C126.3 0 110.7 0 94.8 0C79 0 63 0 47.2 0C31.3 0 15.7 0 7.8 0L0 0Z" fill="#99F159" stroke-linecap="round" stroke-linejoin="miter"></path></svg>