<svg id="visual" viewBox="0 0 900 50" width="900" height="50" xmlns="http://www.w3.org/2000/svg" xmlns:xlink="http://www.w3.org/1999/xlink" version="1.1"><rect x="0" y="0" width="900" height="50" fill="#C5FA9F"></rect><path d="M0 25L13.7 25.5C27.3 26 54.7 27 82 26.3C109.3 25.7 136.7 23.3 163.8 22.3C191 21.3 218 21.7 245.2 22.2C272.3 22.7 299.7 23.3 327 22.8C354.3 22.3 381.7 20.7 409 21.8C436.3 23 463.7 27 491 26.8C518.3 26.7 545.7 22.3 573 22C600.3 21.7 627.7 25.3 654.8 27.2C682 29 709 29 736.2 29C763.3 29 790.7 29 818 28.8C845.3 28.7 872.7 28.3 886.3 28.2L900 28L900 51L886.3 51C872.7 51 845.3 51 818 51C790.7 51 763.3 51 736.2 51C709 51 682 51 654.8 51C627.7 51 600.3 51 573 51C545.7 51 518.3 51 491 51C463.7 51 436.3 51 409 51C381.7 51 354.3 51 327 51C299.7 51 272.3 51 245.2 51C218 51 191 51 163.8 51C136.7 51 109.3 51 82 51C54.7 51 27.3 51 13.7 51L0 51Z" fill="#F4FDA0" stroke-linecap="round" stroke-linejoin="miter"></path></svg>